<svg xmlns="http://www.w3.org/2000/svg" xmlns:xlink="http://www.w3.org/1999/xlink" viewBox="0 0 159.8 159.8"><defs><style>.cls-1{fill:#114068;}.cls-2{fill:url(#linear-gradient);}.cls-3{fill:#fff;}.cls-4{fill:#ffb32c;}</style><linearGradient id="linear-gradient" x1="-485.45" y1="-730.26" x2="-424.11" y2="-624.01" gradientTransform="translate(564 744.07)" gradientUnits="userSpaceOnUse"><stop offset="0" stop-color="#39c2e2"/><stop offset="0.68" stop-color="#39c2e2" stop-opacity="0"/></linearGradient></defs><g id="Layer_2" data-name="Layer 2"><g id="Layer_1-2" data-name="Layer 1"><circle cx="79.9" cy="79.9" r="79.9"/><circle class="cls-1" cx="79.9" cy="80.7" r="67.3"/><path class="cls-2" d="M79,84.2,129.6,126A67.25,67.25,0,0,0,79.8,13.5a2.77,2.77,0,0,0-.9.1V84.2Z"/><path class="cls-3" d="M79.9,110.6a26.05,26.05,0,1,1,26.1-26A26.18,26.18,0,0,1,79.9,110.6Zm0-49.1a22.9,22.9,0,1,0,22.9,22.9A23,23,0,0,0,79.9,61.5Z"/><path class="cls-3" d="M79.9,136.6A52.1,52.1,0,1,1,132,84.5,52.2,52.2,0,0,1,79.9,136.6Zm0-101a49,49,0,1,0,49,49A49,49,0,0,0,79.9,35.6Z"/><circle class="cls-4" cx="111.6" cy="66.6" r="8.3"/><circle class="cls-4" cx="48.1" cy="104.8" r="4.1"/><circle class="cls-4" cx="92" cy="104.8" r="12.1"/><path class="cls-3" d="M78.3,0a6.55,6.55,0,0,0,0,1.4V84.1a1.69,1.69,0,0,0,1.6,1.8,1.76,1.76,0,0,0,1.6-1.8V1.4a6.55,6.55,0,0,0,0-1.4H78.3Z"/></g></g></svg>