<?xml version="1.0" encoding="utf-8"?>
<!-- Generator: Adobe Illustrator 26.0.3, SVG Export Plug-In . SVG Version: 6.00 Build 0)  -->
<svg version="1.1" id="Layer_1" xmlns="http://www.w3.org/2000/svg" xmlns:xlink="http://www.w3.org/1999/xlink" x="0px" y="0px"
	 viewBox="0 0 1271.5 159.8" style="enable-background:new 0 0 1271.5 159.8;" xml:space="preserve">
<style type="text/css">
	.st0{fill:#FFFFFF;}
	.st1{fill:#126B93;}
	.st2{fill:#114068;}
	.st3{fill:url(#SVGID_1_);}
	.st4{fill:#FFB32C;}
</style>
<path class="st0" d="M309.3,63c2.8-2.4,5.7-4.6,8.8-6.6c6.9-3.8,14.1-4.4,21.7-3c11.8,2.2,19.6,9.1,23.8,20
	c4.9,12.9,3.5,31.3-8.9,41.8c-8.1,6.9-17.6,8.8-27.9,7.1c-6.9-1-13.1-4.6-17.3-10.1c-0.5,2.6-0.8,4.8-1.1,6.9
	c-0.2,1.4-0.7,2-2.1,1.9c-2.3-0.1-4.7-0.1-6.9,0c-1.6,0-2.3-0.5-2.2-2.1V28.2c0-3.5,0-3.5,3.5-3.5c2,0,4,0.1,6,0s2.8,0.6,2.8,2.7
	c-0.1,11,0,21.9,0,32.9C309.3,61.2,309.3,62.1,309.3,63z M332,111.7c3.9,0.4,7.7-0.7,10.9-3c10.7-7.2,12.7-20.4,8.7-31
	c-3.3-8.7-11-14.4-21.1-13.9c-6.3,0.2-12.2,3.3-16,8.4c-4.5,5.8-5.1,12.3-4.6,19.3C310.7,101.8,320,112.6,332,111.7z"/>
<path class="st0" d="M546.1,111.3c-1.5,1.7-2.4,2.9-3.4,4c-7.1,7.7-16.1,8.4-25.7,6.9c-5.2-0.6-10-3.2-13.4-7.2
	c-7.5-9-6.6-26.1,8.2-31.7c4.5-1.7,9.3-2.7,14.1-2.7c5.6,0,11.2-0.1,16.8,0c1.9,0,2.5-0.7,2.5-2.6c-0.1-7.7-5.4-13.4-13.2-14.2
	c-4.6-0.5-9,0.1-12.9,2.6c-2.7,1.6-4.7,4.2-5.5,7.3c-0.5,1.7-1.4,2.6-3.2,2.6h-7.7c-1.7,0-2.5-0.7-2.2-2.7c1.4-8.8,7-14.3,14.6-17.6
	c9.6-4.2,19.4-4.5,29.2,0c6.1,2.8,9.9,7.8,12,14c1.1,3.6,1.7,7.3,1.6,11.1c-0.1,12.3,0,24.6,0,36.9c0,3.2-0.1,3.2-3.2,3.2h-6
	c-1.3,0-1.9-0.5-2-1.8C546.2,116.7,546,114,546.1,111.3z M535.4,90.2L535.4,90.2c-2.3,0-4.5-0.1-6.7,0.1c-3.9,0.4-8,0.4-11.6,2.5
	c-4.8,2.8-6.4,8.9-3.6,13.7c0.8,1.3,1.9,2.5,3.1,3.3c2.1,1.4,4.4,1.7,6.8,2.1c13.1,1.8,20.9-9.2,21.8-19.3c0.2-1.8-0.6-2.4-2.4-2.4
	C540.3,90.3,537.8,90.2,535.4,90.2z"/>
<path class="st0" d="M461.7,90.8h-23.3c-2.6,0-3,0.5-2.6,2.9c1.6,8.4,6,14.8,14.4,17.3s17.3,1,22.4-8c0.8-1.9,2.8-3,4.8-2.7
	c2,0.1,4,0,6,0c2.6,0.1,3,0.6,2.1,3.1c-3.3,8.4-8.8,14.7-17.5,17.6c-17.9,6-38.9-1.6-43.9-23.8c-2.7-11.8-1-23,6.7-32.9
	c5.6-7.2,13.3-10.7,22.2-11.4c10.9-1,20.5,2,27.8,10.6c6.2,7.4,8,16.2,7.3,25.6c-0.1,1.8-1.5,1.8-2.8,1.8
	C477.3,90.8,469.6,90.8,461.7,90.8z M455.3,81c5.8,0,11.7-0.1,17.5,0c2.3,0.1,2.9-1,2.5-2.9c-0.6-2.9-1.9-5.6-3.7-8
	c-4.7-5.5-10.7-6.9-17.5-6.4c-8.5,0.4-15.7,6.4-17.6,14.7c-0.5,2.3,0.3,2.6,2.2,2.6L455.3,81z"/>
<path class="st0" d="M586.2,89.1c-0.5,0.9-0.6,1.9-0.5,2.9c0,8.7-0.1,17.5,0,26.1c0,2.1-0.5,3.1-2.8,2.9c-2.4-0.1-4.8-0.1-7.2,0
	c-1.6,0-2.3-0.5-2.2-2.1V28.2c0-3.5,0-3.5,3.4-3.5h5.3c3.5,0,3.5,0,3.5,3.4v48.2c0,1.2-0.7,2.9,0.5,3.5c1,0.4,1.8-1.3,2.7-2.1
	c6.9-7.1,13.8-14.3,20.7-21.4c1.1-1.3,2.8-1.9,4.5-1.8c3.2,0.1,6.4,0,9.6,0.1c0.7,0,1.7-0.4,2.1,0.6c0.3,0.7-0.5,1.3-1,1.7
	c-7.5,7.7-15,15.3-22.6,22.9c-4.6,4.7-4.7,4.7-0.4,9.4l26.5,29.2c0.5,0.6,1.6,1.1,1.1,2.2c-0.5,0.8-1.5,0.5-2.2,0.5
	c-3.1,0-6.2-0.1-9.4,0.1c-2.1,0.1-4.1-0.8-5.4-2.5c-8-9.1-16.1-18.3-24.1-27.3C587.7,90.6,587,90,586.2,89.1z"/>
<path class="st0" d="M216.5,111.3c-4.5,6.2-10,9.8-16.8,11c-13.7,2.4-27.8-3.5-30.7-19.8c-0.6-3.5-0.9-7.1-0.8-10.7V59.5
	c0-4.9,0-4.9,4.8-4.9h3.8c3.9,0,3.9,0,3.9,3.8V90c-0.1,3.5,0.2,7,0.9,10.5c1.7,7.1,6.5,10.8,13.8,11.3c12.7,0.9,20.2-9.2,20.3-19.5
	c0.1-10.5,0.1-20.9,0.1-31.4v-2.7c0.2-3.5,0.5-3.7,3.9-3.7h5c3.7,0,3.7,0,3.7,3.5v58.8c0,4.2,0,4.2-4.4,4.2c-1.4,0-2.7-0.1-4.1,0
	c-2.2,0.3-3.1-0.8-3.2-2.8C216.8,116.2,216.6,114.1,216.5,111.3z"/>
<path class="st0" d="M252.3,85.7c0-6-0.1-12,0-18c0-2-0.5-2.9-2.7-2.8s-4.2,0-6.2,0c-1.6,0.1-2.5-0.5-2.5-2.2v-6.2
	c0-1.4,0.6-2,2.1-2c2.3,0.1,4.7-0.1,6.9,0c1.6,0.1,2.3-0.5,2.4-2.2c0.2-3.6,1-7.1,0.9-10.7c-0.1-2,0.8-3.1,3-3
	c1.8,0.1,3.7,0.1,5.5,0c1.9-0.1,2.7,0.6,2.7,2.7c-0.1,3.4,0,6.7,0,10.1c0,3.1,0,3.2,3.3,3.2c4.6,0,9.1,0.1,13.7,0
	c1.9,0,2.7,0.7,2.6,2.6v5.5c0,1.7-0.8,2.4-2.5,2.4c-4.7-0.1-9.3,0.1-14-0.1c-2.3-0.1-3.2,0.6-3.1,3c0.1,10.3,0,20.7,0.1,31
	c0,1.9,0.3,3.8,0.5,5.8c0.5,3.3,3.1,5.5,6.8,5.7c2.8,0.2,5.6,0.2,8.4,0.2c2,0,2.9,0.9,2.9,2.9c-0.1,1.8,0,3.7,0,5.5
	c0,1.1-0.3,2.2-1.6,2.2c-5.3-0.1-10.6,0.6-15.8-0.5c-9.3-2-12.9-8-13.3-16.9C252.1,97.6,252.3,91.6,252.3,85.7L252.3,85.7z"/>
<path class="st0" d="M392.6,64.5c1.6-1.8,2.9-3.4,4.4-4.8c4.8-4.7,10.9-6.5,17.5-6.9c2-0.2,2.9,0.6,2.8,2.7c-0.1,2.4,0,4.8,0,7.2
	c0,1.7-0.5,2.7-2.6,2.8c-3.3,0.2-6.7,0.8-9.9,1.6c-6.2,2.1-10.6,7.6-11.4,14.1c-1.2,11.5-0.4,23-0.5,34.5c-0.1,6.2,0,5.1-5.1,5.2
	h-3.1c-4.2,0-4.2,0-4.2-4.3V58.3c0-3.9,0-3.9,4-3.9c1.6,0,3.4,0.1,5,0c1.1-0.2,2.2,0.5,2.5,1.6c0,0.2,0.1,0.4,0,0.6
	c0.1,1.3,0.3,2.6,0.4,3.8C392.3,61.8,392.4,63.1,392.6,64.5z"/>
<path class="st1" d="M636.4,113.8c0-4.8,3.4-8,8.2-8c4.4-0.1,8.1,3.4,8.2,7.8c0,0,0,0.1,0,0.1c0,4.5-3.6,8.2-8.2,8.3
	C640.1,122,636.4,118.3,636.4,113.8z"/>
<circle class="st0" cx="79.9" cy="79.9" r="79.9"/>
<circle class="st2" cx="79.9" cy="80.7" r="67.3"/>
<linearGradient id="SVGID_1_" gradientUnits="userSpaceOnUse" x1="-452.338" y1="878.5748" x2="-390.9949" y2="772.3193" gradientTransform="matrix(1 0 0 -1 530.9 892.37)">
	<stop  offset="0" style="stop-color:#39C2E2"/>
	<stop  offset="0.68" style="stop-color:#39C2E2;stop-opacity:0"/>
</linearGradient>
<path class="st3" d="M79,84.2l50.6,41.8c25-27.5,23-70-4.5-95c-12.4-11.3-28.5-17.5-45.3-17.5c-0.3,0-0.6,0-0.9,0.1L79,84.2L79,84.2
	z"/>
<path class="st0" d="M79.9,110.6c-14.4,0-26-11.7-26-26.1c0-14.4,11.7-26,26.1-26c14.4,0,26,11.7,26,26.1
	C105.9,99,94.3,110.6,79.9,110.6z M79.9,61.5C67.3,61.5,57,71.8,57,84.4s10.3,22.9,22.9,22.9s22.9-10.3,22.9-22.9l0,0
	C102.7,71.8,92.5,61.6,79.9,61.5z"/>
<path class="st0" d="M79.9,136.6c-28.8,0-52.1-23.3-52.1-52.1s23.3-52.1,52.1-52.1S132,55.7,132,84.5
	C131.9,113.3,108.7,136.5,79.9,136.6z M79.9,35.6c-27.1,0-49,21.9-49,49s21.9,49,49,49s49-21.9,49-49S107,35.6,79.9,35.6
	C79.9,35.6,79.9,35.6,79.9,35.6z"/>
<circle class="st4" cx="111.6" cy="66.6" r="8.3"/>
<circle class="st4" cx="48.1" cy="104.8" r="4.1"/>
<circle class="st4" cx="92" cy="104.8" r="12.1"/>
<path class="st0" d="M78.3,0c-0.1,0.5-0.1,0.9,0,1.4v82.7c-0.1,0.9,0.6,1.7,1.6,1.8c0,0,0,0,0,0c0.9-0.1,1.6-0.9,1.6-1.8V1.4
	c0.1-0.5,0.1-0.9,0-1.4C81.5,0,78.3,0,78.3,0z"/>
<path class="st4" d="M661.4,54.1h24.5v11.2c3-4,6.8-7.3,11.1-9.8c3.8-2,8.3-2.9,13.7-2.9c7.3,0,13,2.2,17.1,6.5s6.2,11,6.2,20.1
	v43.7h-26.5V85.1c0-4.3-0.8-7.4-2.4-9.2c-1.7-1.9-4.2-2.8-6.7-2.7c-3-0.1-5.9,1.2-7.8,3.6c-2,2.4-3,6.8-3,13v33h-26.3L661.4,54.1
	L661.4,54.1z"/>
<path class="st4" d="M826.1,95h-52.8c0.5,4.2,1.6,7.4,3.4,9.4c2.5,3,6.2,4.6,10,4.5c2.6,0,5.1-0.6,7.4-1.9c1.8-1.1,3.3-2.6,4.6-4.3
	l25.9,2.4c-4,6.9-8.8,11.9-14.4,14.8s-13.7,4.5-24.1,4.5c-9.1,0-16.3-1.3-21.5-3.8c-5.4-2.8-9.9-7-13-12.2c-3.5-6-5.3-12.8-5.1-19.7
	c0-10.7,3.4-19.4,10.3-26.1s16.4-10,28.5-10c9.8,0,17.6,1.5,23.3,4.5c5.6,2.9,10.1,7.4,13,12.9c3,5.7,4.5,13,4.5,22.1L826.1,95
	L826.1,95z M799.3,82.4c-0.5-5.1-1.9-8.7-4.1-10.9c-5.3-4.8-13.4-4.3-18.2,1c-0.2,0.2-0.4,0.5-0.6,0.7c-1.6,2.1-2.6,5.2-3,9.3
	L799.3,82.4L799.3,82.4z"/>
<path class="st4" d="M870,28v26.1h14.5l4.9,19.3h-19.3v24.3c0,2.9,0.3,4.9,0.8,5.8c1,1.5,2.7,2.4,4.5,2.2c2.8-0.2,5.6-0.8,8.2-1.7
	l1.9,18.2c-6,1.3-12.1,2-18.2,2.1c-6.6,0-11.4-0.8-14.5-2.5c-3.1-1.7-5.6-4.4-6.9-7.7c-1.5-3.4-2.2-9-2.2-16.6V73.4h-9.8V54.1h9.7
	V28H870z"/>
<path class="st4" d="M889.3,54.1h25.5l11,43.3l13.9-43.3h23.8L978,97.5l11.1-43.4h25.3l-25.3,68.7h-23.4l-13.9-41.3l-13.4,41.3
	h-23.5L889.3,54.1z"/>
<path class="st4" d="M1099.3,54.1h24.6v11.3c2.4-4.9,4.8-8.2,7.3-10.1c2.7-1.9,6-2.8,9.3-2.7c3.9,0,8.1,1.2,12.7,3.6L1145,75
	c-2.3-1.1-4.8-1.7-7.4-1.9c-3.3-0.1-6.3,1.5-8,4.3c-2.7,4-4.1,11.5-4.1,22.5v23H1099V54.1H1099.3z"/>
<path class="st4" d="M1051.6,52.5c-19.4,0-35.2,15.8-35.2,35.2s15.8,35.2,35.2,35.2c19.4,0,35.2-15.8,35.2-35.2c0,0,0,0,0,0
	C1086.8,68.3,1071.1,52.5,1051.6,52.5C1051.6,52.5,1051.6,52.5,1051.6,52.5z M1051.6,103.4c-8.7,0-15.7-7-15.7-15.7
	s7-15.7,15.7-15.7c8.7,0,15.7,7,15.7,15.7c0,0,0,0,0,0C1067.3,96.3,1060.3,103.4,1051.6,103.4
	C1051.7,103.4,1051.6,103.4,1051.6,103.4z"/>
<path class="st4" d="M1249.4,115.4c-1.7,0-3.4,0.2-5.1,0.6l-38.9-32.5l38.5-26.1c1.8,0.4,3.6,0.7,5.5,0.7c12.2,0,22.1-9.9,22.1-22.1
	c0-12.2-9.9-22.1-22.1-22.1c-12.2,0-22.1,9.9-22.1,22.1c0,0,0,0,0,0v0.7L1194,59.3V40c9.8-7.3,11.8-21.1,4.5-30.9
	s-21.1-11.8-30.9-4.5s-11.8,21.1-4.5,30.9c1.3,1.7,2.8,3.2,4.5,4.5v24.7c-9.8,7.3-11.8,21.1-4.6,30.8c1.3,1.7,2.8,3.3,4.6,4.6v19.7
	c-9.8,7.3-11.8,21.1-4.5,30.9s21.1,11.8,30.9,4.5c9.8-7.3,11.8-21.1,4.5-30.9c-1.3-1.7-2.8-3.2-4.5-4.5v-11.4l33.3,27.9v1.2
	c0,12.2,9.9,22.1,22.1,22.1c12.2,0,22.1-9.9,22.1-22.1S1261.6,115.4,1249.4,115.4L1249.4,115.4L1249.4,115.4z M1259.1,36
	c0,5.4-4.4,9.8-9.8,9.8c-5.4,0-9.8-4.4-9.8-9.8c0-5.4,4.4-9.8,9.8-9.8C1254.7,26.2,1259.1,30.6,1259.1,36z M1180.8,147.3
	c-5.4,0-9.8-4.4-9.8-9.8s4.4-9.8,9.8-9.8c5.4,0,9.8,4.4,9.8,9.8C1190.6,142.9,1186.2,147.3,1180.8,147.3z M1180.8,92.2
	c-5.4,0-9.8-4.4-9.8-9.8s4.4-9.8,9.8-9.8c5.4,0,9.8,4.4,9.8,9.8C1190.6,87.8,1186.2,92.2,1180.8,92.2z M1180.8,12.5
	c5.4,0,9.8,4.4,9.8,9.8s-4.4,9.8-9.8,9.8c-5.4,0-9.8-4.4-9.8-9.8C1171,16.9,1175.4,12.5,1180.8,12.5z M1239.6,137.5
	c0-5.4,4.4-9.8,9.8-9.8c5.4,0,9.8,4.4,9.8,9.8s-4.4,9.8-9.8,9.8C1244,147.3,1239.6,142.9,1239.6,137.5L1239.6,137.5z"/>
</svg>
